HIERARCHY
ROOT ui
{
	 OFFSET 0 0 0
	 CHANNELS 3 XPosition YPosition Z Position
	 EndSite
	 {
	 OFFSET 0 -1 0
	 }
}
ROOT li
{
	 OFFSET 0 0 0
	 CHANNELS 3 XPosition YPosition Z Position
	 EndSite
	 {
	 OFFSET 0 -1 0
	 }
}
ROOT ul
{
	 OFFSET 0 0 0
	 CHANNELS 3 XPosition YPosition Z Position
	 EndSite
	 {
	 OFFSET 0 -1 0
	 }
}
ROOT ll
{
	 OFFSET 0 0 0
	 CHANNELS 3 XPosition YPosition Z Position
	 EndSite
	 {
	 OFFSET 0 -1 0
	 }
}
ROOT tt
{
	 OFFSET 0 0 0
	 CHANNELS 3 XPosition YPosition Z Position
	 EndSite
	 {
	 OFFSET 0 -1 0
	 }
}
ROOT tb
{
	 OFFSET 0 0 0
	 CHANNELS 3 XPosition YPosition Z Position
	 EndSite
	 {
	 OFFSET 0 -1 0
	 }
}
ROOT td
{
	 OFFSET 0 0 0
	 CHANNELS 3 XPosition YPosition Z Position
	 EndSite
	 {
	 OFFSET 0 -1 0
	 }
}
ROOT v
{
	 OFFSET 0 0 0
	 CHANNELS 3 XPosition YPosition Z Position
	 EndSite
	 {
	 OFFSET 0 -1 0
	 }
}
ROOT bn
{
	 OFFSET 0 0 0
	 CHANNELS 3 XPosition YPosition Z Position
	 EndSite
	 {
	 OFFSET 0 -1 0
	 }
}
MOTION
Frames: 16
Frame Time: 0.002
-0.005770711898803711	-6.855689883232117E-4	0		0.5062671508789063	-2.47086669921875	0		-0.98358056640625	0.2768120422363281	0		-0.615533935546875	-2.6177080078125	0		2.456884521484375	-0.5556328735351562	0		3.76859765625	-0.24700981140136719	0		4.96513330078125	-0.03804153060913086	0		5.87218798828125	0.42322271728515626	0		-0.30184942626953126	5.87219482421875	0		
-0.005664842128753662	-6.787649989128113E-4	0		0.5584156494140625	-2.476446044921875	0		-0.9145379638671876	0.27197064208984373	0		-0.5892254028320313	-2.610031494140625	0		2.491327392578125	-0.5289212646484375	0		3.77584228515625	-0.23592572021484376	0		4.968322265625	-0.030859691619873047	0		5.8722646484375	0.423670166015625	0		-0.43522891235351563	5.85274609375	0		
-0.01265269374847412	-0.0076045961380004886	0		0.5145363159179688	-2.4819189453125	0		-0.9884500122070312	0.2727908020019531	0		-0.5890325927734374	-2.610061767578125	0		2.511754150390625	-0.5020690002441406	0		3.771874755859375	-0.24174241638183594	0		4.98331103515625	-0.03985222625732422	0		5.87233203125	0.4240485534667969	0		-0.4363470764160156	5.8537333984375	0		
-0.005490383148193359	-7.090870141983032E-4	0		0.5426973266601562	-2.482249755859375	0		-0.9724486694335938	0.2665504150390625	0		-0.6296534423828125	-2.5916279296875	0		2.4989921875	-0.489858154296875	0		3.77909130859375	-0.23072251892089843	0		4.986462890625	-0.03374558639526367	0		5.8730791015625	0.41913873291015624	0		-0.47052621459960936	5.84809228515625	0		
-0.002384216070175171	0.0022200260162353515	0		0.5219424438476562	-2.47302783203125	0		-0.963292236328125	0.2743832092285156	0		-0.6234420166015625	-2.585750732421875	0		2.51848193359375	-0.4550484619140625	0		3.840153564453125	-0.23236259460449218	0		5.0045107421875	-0.03585393142700195	0		5.8816650390625	0.4139267883300781	0		-0.4394075012207031	5.86568310546875	0		
0.023679622650146483	0.001871116042137146	0		0.5689196166992188	-2.485607666015625	0		-0.9051785278320312	0.2786427001953125	0		-0.6012755126953125	-2.582067138671875	0		2.55576318359375	-0.4374712524414063	0		3.819480224609375	-0.2100855712890625	0		5.023564453125	-0.037013175964355466	0		5.86829296875	0.44212588500976563	0		-0.3023856201171875	5.8720390625	0		
-0.005290402889251709	-8.5180002450943E-4	0		0.5071889953613281	-2.470941162109375	0		-0.9672202758789062	0.27028646850585936	0		-0.6141002807617187	-2.57598583984375	0		2.5790166015625	-0.42175515747070313	0		3.82239599609375	-0.22311567687988282	0		5.02955810546875	-0.043058738708496094	0		5.87253515625	0.4247732238769531	0		-0.4366411437988281	5.85352587890625	0		
-0.012309330940246582	-0.007839069843292237	0		0.5571937866210938	-2.4785810546875	0		-0.9821954956054687	0.267380615234375	0		-0.6380778198242187	-2.58178369140625	0		2.60327734375	-0.40507327270507815	0		3.847481201171875	-0.22143048095703124	0		5.03268896484375	-0.03710628890991211	0		5.86961962890625	0.40236053466796873	0		-0.3033996887207031	5.8739150390625	0		
-0.0051673388481140135	-9.971529841423035E-4	0		0.49028570556640627	-2.47688134765625	0		-0.967101806640625	0.27012484741210935	0		-0.6010037841796875	-2.582291259765625	0		2.597457275390625	-0.39506637573242187	0		3.847544189453125	-0.22148500061035156	0		5.05255322265625	-0.05438369369506836	0		5.8747138671875	0.4142565002441406	0		-0.47067254638671874	5.84876611328125	0		
0.023929683685302735	0.0015852789878845214	0		0.5114760131835937	-2.46620703125	0		-0.9629915771484375	0.27399563598632815	0		-0.6407401123046875	-2.564913330078125	0		2.606786376953125	-0.37225396728515625	0		3.84982763671875	-0.20259130859375	0		5.063859375	-0.033593822479248046	0		5.874759765625	0.41411532592773437	0		-0.43655377197265627	5.85329052734375	0		
-0.00199911904335022	0.0017997440099716186	0		0.5095090637207031	-2.468272216796875	0		-0.9788502807617188	0.28009957885742187	0		-0.609767578125	-2.57235302734375	0		2.60900390625	-0.35937783813476565	0		3.86377978515625	-0.2128590087890625	0		5.06882421875	-0.04276427841186523	0		5.87480859375	0.41391098022460937	0		-0.4364523620605469	5.85320751953125	0		
0.020039833068847657	-0.001540295958518982	0		0.5334981689453125	-2.473640625	0		-0.9828181762695313	0.2760706787109375	0		-0.6467061157226562	-2.5710048828125	0		2.624305419921875	-0.33966656494140623	0		3.8979658203125	-0.20338018798828125	0		5.0748291015625	-0.04897368240356445	0		5.86981201171875	0.40168258666992185	0		-0.30405731201171876	5.8745986328125	0		
-0.009821439743041992	0.003722614049911499	0		0.5055403747558593	-2.47340869140625	0		-0.9877809448242187	0.27206045532226564	0		-0.6246224975585938	-2.567333251953125	0		2.654272705078125	-0.3491378173828125	0		3.87507763671875	-0.20025863647460937	0		5.0779765625	-0.043171630859375	0		5.87126953125	0.39614797973632815	0		-0.4371325988769531	5.854060546875	0		
-0.004800303936004639	-0.0014139080047607421	0		0.517499755859375	-2.479636474609375	0		-0.972662353515625	0.2748270568847656	0		-0.6846253662109375	-2.569703857421875	0		2.63445068359375	-0.3400388488769531	0		3.879210693359375	-0.19546214294433595	0		5.0870546875	-0.043456897735595704	0		5.8713251953125	0.39580520629882815	0		-0.470003173828125	5.84837353515625	0		
0.0023570830821990968	0.005432004928588867	0		0.5225863647460938	-2.47377978515625	0		-0.9575453491210938	0.27760345458984376	0		-0.6096386108398437	-2.57263134765625	0		2.645692626953125	-0.3253031311035156	0		3.910222412109375	-0.20098724365234374	0		5.08710693359375	-0.045650928497314454	0		5.87083154296875	0.4300518798828125	0		-0.44056781005859375	5.86697412109375	0		
-0.0016180219650268554	0.0014147130250930786	0		0.5096502380371094	-2.468706787109375	0		-0.9743958129882813	0.2837625732421875	0		-0.6615631103515625	-2.56607373046875	0		2.665695556640625	-0.3306706848144531	0		3.896417236328125	-0.18999380493164061	0		5.10026904296875	-0.03800325775146484	0		5.8750771484375	0.4122461242675781	0		-0.3032440185546875	5.87432568359375	0		
